<?xml version="1.0" encoding="UTF-8"?><svg id="Layer_2" xmlns="http://www.w3.org/2000/svg" viewBox="0 0 511.96 191.04"><defs><style>.cls-1{fill:#5b0f15;}</style></defs><g id="Layer_1-2"><path class="cls-1" d="M81.45.8L0,82.23v108.81l81.52-81.54-.07-108.69ZM54.37,98.3l-27.21,27.21v-31.98l27.21-27.21v31.98Z"/><polygon class="cls-1" points="54.09 150.18 54.09 191.04 67.71 177.42 67.71 163.81 81.33 150.19 81.33 136.58 67.72 150.19 67.72 136.56 54.09 150.18"/><polygon class="cls-1" points="107.56 163.38 107.56 0 232.47 124.91 232.47 0 259.68 27.21 259.68 190.12 134.86 65.3 134.86 190.37 107.56 163.38"/><polygon class="cls-1" points="272.68 113.83 272.68 190.78 349.57 190.78 417.03 123.31 417.03 84.89 338.26 163.67 299.74 163.67 299.74 125.22 382.9 42.06 344.62 42.06 272.68 113.83"/><polygon class="cls-1" points="269.85 1.13 484.92 1.13 511.96 28.16 457.11 28.16 457.11 190.6 430.14 163.63 430.14 28.2 297.01 28.2 269.85 1.13"/></g></svg>