<?xml version="1.0" encoding="UTF-8"?><svg id="Layer_2" xmlns="http://www.w3.org/2000/svg" viewBox="0 0 32.02 22.43"><defs><style>.cls-1{fill:#fff;}</style></defs><g id="Layer_1-2"><path class="cls-1" d="M31.21,2.91c1.15,3.02,1.1,14.03-.28,16.95-.38.8-.98,1.34-1.74,1.75-1.08.56-7.34.82-13.48.82-5.65,0-11.19-.22-12.49-.65-1.2-.4-2.02-1.19-2.45-2.39C-.26,16.47-.49,4.23,1.58,1.81c.7-.82,1.61-1.31,2.69-1.42,2.46-.27,7.21-.4,11.9-.4,5.83,0,11.56.2,12.65.6,1.15.41,1.97,1.17,2.4,2.31ZM12.03,16.05c3.32-1.73,6.63-3.43,9.98-5.16-3.32-1.74-6.61-3.46-9.9-5.19-.03,3.46-.05,6.88-.08,10.35"/></g></svg>